<?xml version="1.0" encoding="UTF-8" standalone="no"?><!DOCTYPE svg PUBLIC "-//W3C//DTD SVG 1.1//EN" "http://www.w3.org/Graphics/SVG/1.1/DTD/svg11.dtd"><svg width="100%" height="100%" viewBox="0 0 164 177" version="1.1" xmlns="http://www.w3.org/2000/svg" xmlns:xlink="http://www.w3.org/1999/xlink" xml:space="preserve" xmlns:serif="http://www.serif.com/" style="fill-rule:evenodd;clip-rule:evenodd;stroke-linejoin:round;stroke-miterlimit:2;"><g><path d="M29.552,30.631l-0,35.259l-29.552,-13.972l0,-35.258l29.552,13.971Zm5.945,0l27.356,-12.933l0,35.258l-27.356,12.934l0,-35.259Zm24.59,-17.85l-28.164,12.446l-27.831,-12.781l28.165,-12.446l27.83,12.781Z" style="fill:#e62b4f;"/><path d="M130.138,30.631l-0,35.259l-29.552,-13.972l0,-35.258l29.552,13.971Zm5.945,0l27.356,-12.933l0,35.258l-27.356,12.934l0,-35.259Zm24.59,-17.85l-28.164,12.446l-27.831,-12.781l28.165,-12.446l27.83,12.781Z" style="fill:#e62b4f;"/><path d="M80.721,141.372l0,35.259l-29.552,-13.972l0,-35.258l29.552,13.971Zm5.946,0l27.355,-12.933l0,35.258l-27.355,12.934l-0,-35.259Zm24.589,-17.851l-28.164,12.447l-27.83,-12.781l28.164,-12.446l27.83,12.78Z" style="fill:#e62b4f;"/><path d="M74.159,36.235c-2.118,0 -3.838,-1.72 -3.838,-3.838c-0,-2.119 1.72,-3.839 3.838,-3.839l15.584,-0c2.118,-0 3.839,1.72 3.839,3.839c-0,2.118 -1.721,3.838 -3.839,3.838l-15.584,0Z"/><path d="M124.513,76.141c1.135,-1.789 3.509,-2.319 5.298,-1.184c1.789,1.136 2.319,3.51 1.183,5.299l-18.753,29.538c-1.136,1.788 -3.51,2.318 -5.298,1.183c-1.789,-1.136 -2.319,-3.51 -1.184,-5.298l18.754,-29.538Z"/><path d="M33.222,80.256c-1.135,-1.789 -0.605,-4.163 1.184,-5.299c1.788,-1.135 4.162,-0.605 5.298,1.184l18.753,29.538c1.136,1.788 0.606,4.162 -1.183,5.298c-1.789,1.135 -4.163,0.605 -5.298,-1.183l-18.754,-29.538Z"/><path d="M71.058,96.726l-3.217,0l-0,-37.773l3.217,0l0,-4.721c0,-2.119 1.72,-3.839 3.839,-3.839c2.119,0 3.839,1.72 3.839,3.839l-0,4.721l5.264,0l-0,-4.721c-0,-2.119 1.72,-3.839 3.838,-3.839c2.119,0 3.839,1.72 3.839,3.839l0,5.592c4.771,1.762 6.151,5.838 6.151,8.809c-0,5.419 -3.052,6.945 -4.63,7.734c4.63,1.736 5.84,5.419 5.84,9.154c-0,2.998 -1.263,5.839 -3.262,7.786c-1.123,1.095 -2.217,1.977 -4.099,2.57l0,5.929c0,2.118 -1.72,3.838 -3.839,3.838c-2.118,0 -3.838,-1.72 -3.838,-3.838l-0,-5.08c-0.055,0 -0.111,0 -0.166,0l-5.098,0l-0,5.08c-0,2.118 -1.72,3.838 -3.839,3.838c-2.119,0 -3.839,-1.72 -3.839,-3.838l0,-5.08Zm4.358,-30.957l0,7.967l9.26,0c3.103,0 5.576,-1.21 5.576,-4.208c0,-2.171 -1.08,-3.286 -2.953,-3.761c-0.182,-0.026 -0.36,-0.064 -0.533,-0.115c-0.683,-0.122 -1.453,-0.175 -2.301,-0.175l-8.015,-0c-0.324,0.143 -0.671,0.243 -1.034,0.292Zm0,14.333l0,10.101l9.68,-0c3.841,-0 6.05,-1.684 6.05,-5.524c0,-3.314 -2.84,-4.577 -5.681,-4.577l-10.049,0Z" style="fill:#06931b;"/></g></svg>